<?xml version="1.0" encoding="utf-8"?><svg version="1.1" id="Layer_1" xmlns="http://www.w3.org/2000/svg" xmlns:xlink="http://www.w3.org/1999/xlink" x="0px" y="0px" viewBox="0 0 122.88 29.31" style="enable-background:new 0 0 122.88 29.31" xml:space="preserve"><g><path d="M28.86,27.36h-6.81l-2.08-5.03H8.6l-1.9,5.03l-6.7,0l10.24-25.4h7.34L28.86,27.36L28.86,27.36z M101.79,9.58l-8.22,8.22 v11.5h11.5l8.22-8.22h-11.5V9.58L101.79,9.58z M101.8,7.98L93.82,0h29.06v29.06l-7.98-7.98V7.98H101.8L101.8,7.98z M75.17,1.96 c9.27,0,14.04,5.77,14.04,12.73c0,7.3-4.62,12.66-14.75,12.66h-10.5V1.96H75.17L75.17,1.96z M70.29,22.71h4.13 c6.37,0,8.27-4.32,8.27-8.04c0-4.36-2.35-8.04-8.34-8.04h-4.06V22.71L70.29,22.71L70.29,22.71z M53.61,1.96h5.51v25.4h-6.33V11.5 l-6.85,7.97h-0.97l-6.85-7.97v15.86h-6.33V1.96h5.51l8.15,9.42L53.61,1.96L53.61,1.96z M14,8.03l-3.72,9.87h7.82L14,8.03L14,8.03z"/></g></svg>