<?xml version="1.0" encoding="utf-8"?><svg version="1.1" id="svg4419" xmlns:svg="http://www.w3.org/2000/svg" xmlns="http://www.w3.org/2000/svg" xmlns:xlink="http://www.w3.org/1999/xlink" x="0px" y="0px" viewBox="0 0 1004.99 662.73" style="enable-background:new 0 0 1004.99 662.73" xml:space="preserve"><style type="text/css"><![CDATA[
	.st0{fill:#0071C5;}
]]></style><g id="g4421" transform="matrix(3.3724426,0,0,3.3724426,-3.3724432,-3.3728222)"><path id="path4423" class="st0" d="M88.8,84.35v48.12H73.48V71.99l31.63,0.03 c13.43,0,18.01,9.47,18.01,18.08v42.38h-15.29v-42.3c0-3.6-1.87-5.82-6.37-5.82L88.8,84.35L88.8,84.35z M192.96,83.63 c-5.24,0-9.29,2.69-10.98,6.35c-1,2.19-1.35,3.88-1.47,6.56h23.57C203.78,89.98,200.81,83.63,192.96,83.63 M180.52,106.96 c0,7.84,4.87,13.6,13.57,13.6c6.77,0,10.13-1.88,14.04-5.77l9.46,9.03c-6.06,5.98-12.41,9.61-23.61,9.61c-14.66,0-28.7-8-28.7-31.3 c0-19.91,12.25-31.18,28.35-31.18c16.32,0,25.75,13.2,25.75,30.48v5.52H180.52 M152.34,132.4c-12.48,0-17.77-8.69-17.77-17.27 V55.51h15.29v16.48h11.53v12.37h-11.53v29.82c0,3.51,1.66,5.46,5.31,5.46h6.22v12.76H152.34 M59.85,63.63H44.43V48.98h15.42V63.63z M59.89,133.11C48.34,132,44.41,125,44.41,116.91l0.02-44.92h15.46L59.89,133.11L59.89,133.11z M243.72,131.82 c-11.53-1.11-15.44-8.11-15.44-16.18V46.89h15.44V131.82z M297.68,56.83C283.69-11.38,151.3-15.69,65.96,36.26v5.74 C151.21-1.82,272.12-1.56,283.13,61.26c3.69,20.77-8.02,42.43-28.92,54.88v16.29C279.37,123.22,305.17,93.37,297.68,56.83 M142.56,176.16c-58.9,5.44-120.27-3.1-128.86-49.13c-4.2-22.69,6.13-46.74,19.84-61.68v-7.99C8.86,79.01-4.53,106.41,3.18,138.79 c9.84,41.52,62.52,65.05,142.92,57.23c31.81-3.1,73.44-13.33,102.39-29.22v-22.57C222.22,159.88,178.76,172.81,142.56,176.16"/><path id="path4425" class="st0" d="M261.56,51.46c0-0.75-0.44-0.99-1.44-0.99h-0.96v2.12 c0.14,0,0.84,0.03,0.96,0.03c1,0,1.44-0.33,1.44-1.03V51.46L261.56,51.46z M263.07,56.71h-1.14c-0.1,0-0.19-0.06-0.24-0.15 l-1.56-2.64c-0.03-0.05-0.16-0.12-0.22-0.12h-0.7v2.62c0,0.14-0.1,0.29-0.28,0.29h-1.03c-0.13,0-0.26-0.15-0.26-0.29v-6.63 c0-0.38,0.15-0.54,0.47-0.59c0.37-0.05,1.36-0.08,1.89-0.08c1.9,0,3.05,0.56,3.05,2.35v0.12c0,1.1-0.55,1.69-1.4,1.97l1.62,2.73 c0.01,0.06,0.05,0.13,0.05,0.2C263.31,56.59,263.25,56.71,263.07,56.71 M260.35,47.92c-2.81,0-5.09,2.32-5.09,5.12 c0,2.8,2.27,5.09,5.09,5.09c2.8,0,5.1-2.29,5.1-5.09C265.45,50.24,263.15,47.92,260.35,47.92 M260.35,59.18 c-3.42,0-6.14-2.76-6.14-6.14c0-3.38,2.73-6.14,6.14-6.14c3.38,0,6.16,2.77,6.16,6.14C266.51,56.42,263.73,59.18,260.35,59.18"/></g></svg>